<?xml version="1.0" standalone="no"?>
<!DOCTYPE svg PUBLIC "-//W3C//DTD SVG 20010904//EN"
 "http://www.w3.org/TR/2001/REC-SVG-20010904/DTD/svg10.dtd">
<svg version="1.0" xmlns="http://www.w3.org/2000/svg"
 width="512.000000pt" height="512.000000pt" viewBox="0 0 512.000000 512.000000"
 preserveAspectRatio="xMidYMid meet">
<metadata>
Created by potrace 1.11, written by Peter Selinger 2001-2013
</metadata>
<g transform="translate(0.000000,512.000000) scale(0.100000,-0.100000)"
fill="#000000" stroke="none">
<path d="M2380 4797 c-3 -3 -34 -7 -70 -10 -148 -13 -297 -46 -475 -107 -489
-166 -905 -497 -1183 -942 -23 -37 -42 -69 -42 -72 0 -2 -15 -30 -33 -63 -71
-126 -150 -332 -189 -488 -50 -203 -61 -293 -63 -525 -3 -255 11 -377 70 -615
11 -45 69 -214 92 -270 185 -441 494 -803 908 -1060 190 -119 447 -222 670
-271 39 -9 79 -17 90 -20 96 -21 281 -33 455 -30 107 3 204 7 216 9 12 3 43 8
70 12 56 7 59 7 139 24 164 35 316 87 491 171 235 112 427 247 611 429 121
120 277 316 339 426 6 11 27 47 45 80 83 145 166 352 208 520 24 95 33 139 57
290 10 64 13 444 3 510 -4 33 -11 83 -15 110 -5 41 -22 122 -49 238 -33 140
-132 380 -220 532 -156 270 -333 468 -625 698 -105 84 -409 244 -555 294 -159
54 -276 85 -385 102 -36 6 -83 13 -105 17 -47 7 -449 17 -455 11z m410 -331
c14 -3 41 -7 60 -10 156 -20 381 -91 548 -172 309 -151 574 -384 763 -671 135
-204 248 -480 283 -690 4 -18 9 -48 12 -65 12 -70 15 -109 18 -263 5 -240 -22
-421 -95 -639 -236 -710 -876 -1227 -1614 -1303 -91 -10 -320 -10 -413 0 -276
27 -609 147 -842 303 -539 360 -854 931 -865 1564 -4 251 21 419 96 645 162
488 525 901 986 1122 151 72 352 139 479 159 21 3 41 7 44 9 3 2 44 7 90 10
47 4 86 9 88 10 5 5 336 -3 362 -9z"/>
<path d="M1856 3673 c-51 -14 -121 -72 -162 -133 -64 -95 -92 -200 -92 -340 0
-377 265 -601 485 -410 44 38 110 143 119 190 0 3 4 12 7 20 15 35 28 148 26
219 -5 195 -97 379 -217 437 -37 18 -130 28 -166 17z"/>
<path d="M3102 3657 c-23 -12 -60 -39 -82 -60 -38 -37 -105 -156 -116 -207
-22 -108 -25 -146 -21 -225 7 -106 10 -127 39 -203 36 -97 106 -184 176 -218
52 -26 166 -25 208 1 141 91 212 243 212 458 0 206 -88 391 -217 454 -54 26
-147 26 -199 0z"/>
<path d="M1200 2378 c-88 -60 -99 -128 -45 -273 46 -123 133 -289 191 -365
208 -268 453 -447 745 -544 91 -30 131 -40 259 -63 14 -3 97 -6 185 -9 249 -6
442 36 664 143 369 178 643 481 771 854 36 105 38 154 7 200 -52 77 -140 101
-217 58 -43 -25 -60 -51 -90 -139 -154 -462 -599 -789 -1080 -794 -148 -1
-218 6 -324 34 -379 101 -692 391 -815 757 -32 95 -40 108 -84 136 -53 35
-120 37 -167 5z"/>
</g>
</svg>
